<svg xmlns="http://www.w3.org/2000/svg" viewBox="0 0 500 500">
  <g fill="none" fill-rule="evenodd">
    <circle cx="250" cy="250" r="240" fill="#1F2533" />
    <g transform="translate(146 146)">
      <rect width="208" height="176" rx="32" fill="#2A3146" />
      <rect x="28" y="32" width="152" height="32" rx="12" fill="#5C6BC0" />
      <rect x="28" y="80" width="120" height="32" rx="12" fill="#26C6DA" />
      <rect x="28" y="128" width="96" height="32" rx="12" fill="#FFCA28" />
      <path
        d="M182 52c10 0 18 8 18 18 0 6-3 11-7 14l-32 26c-5 4-12 3-16-2a12 12 0 0 1 2-16l24-20h-10a12 12 0 1 1 0-24h21z"
        fill="#FF7043"
      />
    </g>
  </g>
</svg>
